<mxfile host="Electron" modified="2023-12-18T03:51:27.737Z" agent="Mozilla/5.0 (Windows NT 10.0; Win64; x64) AppleWebKit/537.36 (KHTML, like Gecko) draw.io/22.1.2 Chrome/114.0.5735.289 Electron/25.9.4 Safari/537.36" etag="9MY6uhkj5igDK76pg1JT" version="22.1.2" type="device">
  <diagram name="Page-1" id="Kgn6htsi4bFIU0mAGvts">
    <mxGraphModel dx="576" dy="337" grid="1" gridSize="10" guides="1" tooltips="1" connect="1" arrows="1" fold="1" page="1" pageScale="1" pageWidth="850" pageHeight="1100" math="0" shadow="0">
      <root>
        <mxCell id="0" />
        <mxCell id="1" parent="0" />
        <mxCell id="uSK30eEuWAXtoziRserC-48" value="" style="rounded=0;whiteSpace=wrap;html=1;" vertex="1" parent="1">
          <mxGeometry x="370" y="190" width="380" height="350" as="geometry" />
        </mxCell>
        <mxCell id="uSK30eEuWAXtoziRserC-1" value="" style="ellipse;whiteSpace=wrap;html=1;aspect=fixed;fillColor=#ffe6cc;strokeColor=#d79b00;" vertex="1" parent="1">
          <mxGeometry x="380" y="270" width="20" height="20" as="geometry" />
        </mxCell>
        <mxCell id="uSK30eEuWAXtoziRserC-2" value="" style="ellipse;whiteSpace=wrap;html=1;aspect=fixed;fillColor=#ffe6cc;strokeColor=#d79b00;" vertex="1" parent="1">
          <mxGeometry x="405" y="250" width="20" height="20" as="geometry" />
        </mxCell>
        <mxCell id="uSK30eEuWAXtoziRserC-3" value="" style="ellipse;whiteSpace=wrap;html=1;aspect=fixed;fillColor=#ffe6cc;strokeColor=#d79b00;" vertex="1" parent="1">
          <mxGeometry x="385" y="300" width="20" height="20" as="geometry" />
        </mxCell>
        <mxCell id="uSK30eEuWAXtoziRserC-4" value="" style="ellipse;whiteSpace=wrap;html=1;aspect=fixed;fillColor=#ffe6cc;strokeColor=#d79b00;" vertex="1" parent="1">
          <mxGeometry x="405" y="280" width="20" height="20" as="geometry" />
        </mxCell>
        <mxCell id="uSK30eEuWAXtoziRserC-7" value="" style="ellipse;whiteSpace=wrap;html=1;aspect=fixed;fillColor=#ffe6cc;strokeColor=#d79b00;" vertex="1" parent="1">
          <mxGeometry x="435" y="260" width="20" height="20" as="geometry" />
        </mxCell>
        <mxCell id="uSK30eEuWAXtoziRserC-8" value="" style="ellipse;whiteSpace=wrap;html=1;aspect=fixed;fillColor=#ffe6cc;strokeColor=#d79b00;" vertex="1" parent="1">
          <mxGeometry x="435" y="290" width="20" height="20" as="geometry" />
        </mxCell>
        <mxCell id="uSK30eEuWAXtoziRserC-9" value="" style="ellipse;whiteSpace=wrap;html=1;aspect=fixed;fillColor=#dae8fc;strokeColor=#6c8ebf;" vertex="1" parent="1">
          <mxGeometry x="490" y="260" width="20" height="20" as="geometry" />
        </mxCell>
        <mxCell id="uSK30eEuWAXtoziRserC-11" value="" style="ellipse;whiteSpace=wrap;html=1;aspect=fixed;fillColor=#dae8fc;strokeColor=#6c8ebf;" vertex="1" parent="1">
          <mxGeometry x="510" y="290" width="20" height="20" as="geometry" />
        </mxCell>
        <mxCell id="uSK30eEuWAXtoziRserC-12" value="" style="ellipse;whiteSpace=wrap;html=1;aspect=fixed;fillColor=#dae8fc;strokeColor=#6c8ebf;" vertex="1" parent="1">
          <mxGeometry x="515" y="260" width="20" height="20" as="geometry" />
        </mxCell>
        <mxCell id="uSK30eEuWAXtoziRserC-15" value="" style="ellipse;whiteSpace=wrap;html=1;aspect=fixed;fillColor=#ffe6cc;strokeColor=#d79b00;" vertex="1" parent="1">
          <mxGeometry x="660" y="265" width="20" height="20" as="geometry" />
        </mxCell>
        <mxCell id="uSK30eEuWAXtoziRserC-16" value="" style="ellipse;whiteSpace=wrap;html=1;aspect=fixed;fillColor=#ffe6cc;strokeColor=#d79b00;" vertex="1" parent="1">
          <mxGeometry x="685" y="245" width="20" height="20" as="geometry" />
        </mxCell>
        <mxCell id="uSK30eEuWAXtoziRserC-17" value="" style="ellipse;whiteSpace=wrap;html=1;aspect=fixed;fillColor=#ffe6cc;strokeColor=#d79b00;" vertex="1" parent="1">
          <mxGeometry x="665" y="295" width="20" height="20" as="geometry" />
        </mxCell>
        <mxCell id="uSK30eEuWAXtoziRserC-18" value="" style="ellipse;whiteSpace=wrap;html=1;aspect=fixed;fillColor=#ffe6cc;strokeColor=#d79b00;" vertex="1" parent="1">
          <mxGeometry x="685" y="275" width="20" height="20" as="geometry" />
        </mxCell>
        <mxCell id="uSK30eEuWAXtoziRserC-19" value="" style="ellipse;whiteSpace=wrap;html=1;aspect=fixed;fillColor=#ffe6cc;strokeColor=#d79b00;" vertex="1" parent="1">
          <mxGeometry x="715" y="255" width="20" height="20" as="geometry" />
        </mxCell>
        <mxCell id="uSK30eEuWAXtoziRserC-20" value="" style="ellipse;whiteSpace=wrap;html=1;aspect=fixed;fillColor=#ffe6cc;strokeColor=#d79b00;" vertex="1" parent="1">
          <mxGeometry x="715" y="285" width="20" height="20" as="geometry" />
        </mxCell>
        <mxCell id="uSK30eEuWAXtoziRserC-21" value="" style="ellipse;whiteSpace=wrap;html=1;aspect=fixed;fillColor=#dae8fc;strokeColor=#6c8ebf;" vertex="1" parent="1">
          <mxGeometry x="570" y="260" width="20" height="20" as="geometry" />
        </mxCell>
        <mxCell id="uSK30eEuWAXtoziRserC-22" value="" style="ellipse;whiteSpace=wrap;html=1;aspect=fixed;fillColor=#dae8fc;strokeColor=#6c8ebf;" vertex="1" parent="1">
          <mxGeometry x="590" y="290" width="20" height="20" as="geometry" />
        </mxCell>
        <mxCell id="uSK30eEuWAXtoziRserC-23" value="" style="ellipse;whiteSpace=wrap;html=1;aspect=fixed;fillColor=#dae8fc;strokeColor=#6c8ebf;" vertex="1" parent="1">
          <mxGeometry x="595" y="260" width="20" height="20" as="geometry" />
        </mxCell>
        <mxCell id="uSK30eEuWAXtoziRserC-24" value="&lt;font style=&quot;font-size: 18px;&quot;&gt;=&lt;/font&gt;" style="text;html=1;strokeColor=none;fillColor=none;align=center;verticalAlign=middle;whiteSpace=wrap;rounded=0;" vertex="1" parent="1">
          <mxGeometry x="520" y="265" width="60" height="30" as="geometry" />
        </mxCell>
        <mxCell id="uSK30eEuWAXtoziRserC-25" value="&lt;font style=&quot;font-size: 18px;&quot;&gt;+&lt;/font&gt;" style="text;html=1;strokeColor=none;fillColor=none;align=center;verticalAlign=middle;whiteSpace=wrap;rounded=0;" vertex="1" parent="1">
          <mxGeometry x="605" y="265" width="60" height="30" as="geometry" />
        </mxCell>
        <mxCell id="uSK30eEuWAXtoziRserC-26" value="&lt;font style=&quot;font-size: 18px;&quot;&gt;+&lt;/font&gt;" style="text;html=1;strokeColor=none;fillColor=none;align=center;verticalAlign=middle;whiteSpace=wrap;rounded=0;" vertex="1" parent="1">
          <mxGeometry x="446" y="265" width="60" height="30" as="geometry" />
        </mxCell>
        <mxCell id="uSK30eEuWAXtoziRserC-27" value="" style="rounded=0;whiteSpace=wrap;html=1;fillColor=#f8cecc;strokeColor=#b85450;" vertex="1" parent="1">
          <mxGeometry x="415" y="390" width="20" height="20" as="geometry" />
        </mxCell>
        <mxCell id="uSK30eEuWAXtoziRserC-28" value="" style="rounded=0;whiteSpace=wrap;html=1;fillColor=#f8cecc;strokeColor=#b85450;" vertex="1" parent="1">
          <mxGeometry x="447" y="390" width="20" height="20" as="geometry" />
        </mxCell>
        <mxCell id="uSK30eEuWAXtoziRserC-29" value="" style="rounded=0;whiteSpace=wrap;html=1;fillColor=#f8cecc;strokeColor=#b85450;" vertex="1" parent="1">
          <mxGeometry x="478" y="390" width="20" height="20" as="geometry" />
        </mxCell>
        <mxCell id="uSK30eEuWAXtoziRserC-30" value="" style="rounded=0;whiteSpace=wrap;html=1;fillColor=#f8cecc;strokeColor=#b85450;" vertex="1" parent="1">
          <mxGeometry x="510" y="390" width="20" height="20" as="geometry" />
        </mxCell>
        <mxCell id="uSK30eEuWAXtoziRserC-32" value="" style="rounded=0;whiteSpace=wrap;html=1;fillColor=#f8cecc;strokeColor=#b85450;" vertex="1" parent="1">
          <mxGeometry x="415" y="420" width="20" height="20" as="geometry" />
        </mxCell>
        <mxCell id="uSK30eEuWAXtoziRserC-33" value="" style="rounded=0;whiteSpace=wrap;html=1;fillColor=#f8cecc;strokeColor=#b85450;" vertex="1" parent="1">
          <mxGeometry x="447" y="420" width="20" height="20" as="geometry" />
        </mxCell>
        <mxCell id="uSK30eEuWAXtoziRserC-34" value="" style="rounded=0;whiteSpace=wrap;html=1;fillColor=#f8cecc;strokeColor=#b85450;" vertex="1" parent="1">
          <mxGeometry x="478" y="420" width="20" height="20" as="geometry" />
        </mxCell>
        <mxCell id="uSK30eEuWAXtoziRserC-35" value="" style="rounded=0;whiteSpace=wrap;html=1;fillColor=#f8cecc;strokeColor=#b85450;" vertex="1" parent="1">
          <mxGeometry x="510" y="420" width="20" height="20" as="geometry" />
        </mxCell>
        <mxCell id="uSK30eEuWAXtoziRserC-36" value="" style="rounded=0;whiteSpace=wrap;html=1;fillColor=#f8cecc;strokeColor=#b85450;" vertex="1" parent="1">
          <mxGeometry x="579" y="360" width="20" height="20" as="geometry" />
        </mxCell>
        <mxCell id="uSK30eEuWAXtoziRserC-37" value="" style="rounded=0;whiteSpace=wrap;html=1;fillColor=#f8cecc;strokeColor=#b85450;" vertex="1" parent="1">
          <mxGeometry x="611" y="360" width="20" height="20" as="geometry" />
        </mxCell>
        <mxCell id="uSK30eEuWAXtoziRserC-38" value="" style="rounded=0;whiteSpace=wrap;html=1;fillColor=#f8cecc;strokeColor=#b85450;" vertex="1" parent="1">
          <mxGeometry x="579" y="420" width="20" height="20" as="geometry" />
        </mxCell>
        <mxCell id="uSK30eEuWAXtoziRserC-39" value="" style="rounded=0;whiteSpace=wrap;html=1;fillColor=#f8cecc;strokeColor=#b85450;" vertex="1" parent="1">
          <mxGeometry x="579" y="450" width="20" height="20" as="geometry" />
        </mxCell>
        <mxCell id="uSK30eEuWAXtoziRserC-40" value="" style="rounded=0;whiteSpace=wrap;html=1;fillColor=#f8cecc;strokeColor=#b85450;" vertex="1" parent="1">
          <mxGeometry x="579" y="390" width="20" height="20" as="geometry" />
        </mxCell>
        <mxCell id="uSK30eEuWAXtoziRserC-41" value="" style="rounded=0;whiteSpace=wrap;html=1;fillColor=#f8cecc;strokeColor=#b85450;" vertex="1" parent="1">
          <mxGeometry x="611" y="390" width="20" height="20" as="geometry" />
        </mxCell>
        <mxCell id="uSK30eEuWAXtoziRserC-42" value="" style="rounded=0;whiteSpace=wrap;html=1;fillColor=#f8cecc;strokeColor=#b85450;" vertex="1" parent="1">
          <mxGeometry x="611" y="420" width="20" height="20" as="geometry" />
        </mxCell>
        <mxCell id="uSK30eEuWAXtoziRserC-43" value="" style="rounded=0;whiteSpace=wrap;html=1;fillColor=#f8cecc;strokeColor=#b85450;" vertex="1" parent="1">
          <mxGeometry x="611" y="450" width="20" height="20" as="geometry" />
        </mxCell>
        <mxCell id="uSK30eEuWAXtoziRserC-44" value="&lt;font style=&quot;font-size: 18px;&quot;&gt;=&lt;/font&gt;" style="text;html=1;strokeColor=none;fillColor=none;align=center;verticalAlign=middle;whiteSpace=wrap;rounded=0;" vertex="1" parent="1">
          <mxGeometry x="520" y="400" width="60" height="30" as="geometry" />
        </mxCell>
        <mxCell id="uSK30eEuWAXtoziRserC-45" value="5 % of 80" style="text;html=1;strokeColor=none;fillColor=none;align=center;verticalAlign=middle;whiteSpace=wrap;rounded=0;" vertex="1" parent="1">
          <mxGeometry x="446" y="510" width="60" height="30" as="geometry" />
        </mxCell>
        <mxCell id="uSK30eEuWAXtoziRserC-46" value="80 % of 5" style="text;html=1;strokeColor=none;fillColor=none;align=center;verticalAlign=middle;whiteSpace=wrap;rounded=0;" vertex="1" parent="1">
          <mxGeometry x="579" y="510" width="60" height="30" as="geometry" />
        </mxCell>
        <mxCell id="uSK30eEuWAXtoziRserC-47" value="&lt;font style=&quot;font-size: 18px;&quot;&gt;=&lt;/font&gt;" style="text;html=1;strokeColor=none;fillColor=none;align=center;verticalAlign=middle;whiteSpace=wrap;rounded=0;" vertex="1" parent="1">
          <mxGeometry x="523.5" y="510" width="60" height="30" as="geometry" />
        </mxCell>
        <mxCell id="uSK30eEuWAXtoziRserC-49" value="Commutative" style="text;html=1;strokeColor=none;fillColor=none;align=center;verticalAlign=middle;whiteSpace=wrap;rounded=0;" vertex="1" parent="1">
          <mxGeometry x="523.5" y="200" width="60" height="30" as="geometry" />
        </mxCell>
      </root>
    </mxGraphModel>
  </diagram>
</mxfile>
